<?xml version="1.0" encoding="UTF-8"?>
<svg id="Layer_1" xmlns="http://www.w3.org/2000/svg" version="1.1" viewBox="0 0 246 53">
  <!-- Generator: Adobe Illustrator 29.8.6, SVG Export Plug-In . SVG Version: 2.1.1 Build 1)  -->
  <defs>
    <style>
      .st0 {
        fill: #c42030;
      }

      .st0, .st1 {
        fill-rule: evenodd;
      }

      .st2, .st1 {
        fill: #282762;
      }
    </style>
  </defs>
  <path class="st1" d="M12.27,10.63c.42-.09.85-.16,1.27-.2.42-.05.89-.07,1.41-.07s.97.02,1.36.07c.39.05.8.11,1.23.2.09.15.17.37.25.66.08.29.14.59.2.91.06.32.11.63.16.93.05.3.08.56.11.77.3-.45.67-.91,1.09-1.36.42-.45.91-.86,1.47-1.22.56-.36,1.19-.66,1.88-.88.7-.23,1.47-.34,2.31-.34,2.66,0,4.67.73,6.01,2.18,1.35,1.45,2.02,3.73,2.02,6.84v14.95c-1.09.18-2.16.27-3.22.27s-2.13-.09-3.22-.27v-13.23c0-1.63-.25-2.89-.75-3.76-.5-.88-1.37-1.31-2.61-1.31-.51,0-1.04.08-1.59.23-.54.15-1.04.45-1.47.88-.44.44-.79,1.05-1.07,1.84-.27.79-.41,1.81-.41,3.08v12.28c-1.09.18-2.16.27-3.22.27s-2.13-.09-3.22-.27V10.63Z"/>
  <path class="st1" d="M38.41,15.52h-2.95l-.23-.91,8.48-10.83h1.04v6.84h5.49c.09.45.15.86.18,1.22.03.36.05.74.05,1.13,0,.42-.01.83-.05,1.22-.03.39-.09.83-.18,1.31h-5.49v9.2c0,.94.08,1.69.23,2.27.15.57.37,1.03.66,1.36.29.33.64.56,1.07.68.42.12.92.18,1.5.18.45,0,.9-.04,1.34-.11.44-.08.82-.14,1.16-.2.21.57.36,1.17.45,1.79.09.62.14,1.17.14,1.65,0,.33,0,.61-.02.84-.02.23-.04.45-.07.66-1.39.33-2.83.5-4.31.5-2.75,0-4.85-.64-6.31-1.93-1.45-1.28-2.18-3.38-2.18-6.28v-10.6Z"/>
  <path class="st1" d="M59.14,24.32c.12,1.81.76,3.13,1.91,3.94,1.15.82,2.66,1.22,4.54,1.22,1.03,0,2.08-.1,3.15-.29,1.07-.2,2.09-.48,3.06-.84.33.6.62,1.33.86,2.18.24.85.38,1.75.41,2.72-2.36.91-5.02,1.36-7.99,1.36-2.18,0-4.05-.3-5.6-.91-1.56-.6-2.83-1.44-3.81-2.51-.98-1.07-1.71-2.35-2.18-3.83-.47-1.48-.7-3.1-.7-4.85s.24-3.34.73-4.85c.48-1.51,1.2-2.83,2.16-3.94.95-1.12,2.13-2,3.54-2.65,1.41-.65,3.05-.97,4.92-.97,1.63,0,3.09.29,4.36.86,1.27.57,2.35,1.36,3.24,2.36.89,1,1.57,2.18,2.02,3.56.45,1.37.68,2.85.68,4.42,0,.57-.02,1.14-.07,1.7-.04.56-.1,1-.16,1.34h-15.06ZM68.35,19.83c-.06-1.45-.46-2.62-1.2-3.51-.74-.89-1.78-1.34-3.11-1.34-1.51,0-2.66.42-3.45,1.27-.79.85-1.25,2.04-1.41,3.58h9.17Z"/>
  <path class="st1" d="M78.2.93c1.09-.18,2.16-.27,3.22-.27s2.09.09,3.18.27v23.79c0,.94.05,1.69.16,2.27.11.57.27,1.02.5,1.34.23.32.52.54.88.66.36.12.82.18,1.36.18.24,0,.51-.02.79-.05.29-.03.57-.08.84-.14.33,1.24.5,2.45.5,3.63v.66c0,.2-.03.41-.09.66-.48.15-1.07.26-1.75.32-.68.06-1.31.09-1.88.09-2.33,0-4.2-.64-5.6-1.93-1.41-1.28-2.11-3.38-2.11-6.28V.93Z"/>
  <path class="st1" d="M91.76.93c1.09-.18,2.16-.27,3.22-.27s2.09.09,3.18.27v23.79c0,.94.05,1.69.16,2.27.11.57.27,1.02.5,1.34.23.32.52.54.88.66.36.12.82.18,1.36.18.24,0,.51-.02.79-.05.29-.03.57-.08.84-.14.33,1.24.5,2.45.5,3.63v.66c0,.2-.03.41-.09.66-.48.15-1.07.26-1.75.32-.68.06-1.31.09-1.88.09-2.33,0-4.2-.64-5.6-1.93-1.41-1.28-2.11-3.38-2.11-6.28V.93Z"/>
  <path class="st1" d="M115.1,10.36c.7-.15,1.35-.24,1.97-.27.62-.03,1.14-.05,1.57-.05.61,0,1.19.02,1.77.05.57.03,1.12.11,1.63.23l3.77,17.31,4.36-17.31c.94-.18,1.97-.27,3.09-.27.79.03,1.44.06,1.95.09.51.03.97.09,1.36.18l4.26,16.99,3.72-16.99c.51-.09,1-.16,1.45-.2.45-.05.97-.07,1.54-.07.42,0,.93.02,1.52.05.59.03,1.25.12,1.97.27l-7.31,23.38c-.54.09-1.13.15-1.75.18-.62.03-1.14.05-1.57.05-.45,0-.96-.02-1.52-.05-.56-.03-1.1-.11-1.61-.23l-4.26-15.5-4.4,15.54c-.57.09-1.17.15-1.79.18-.62.03-1.14.05-1.57.05s-.92-.02-1.48-.05c-.56-.03-1.1-.11-1.61-.23l-7.08-23.34Z"/>
  <path class="st1" d="M179.43,10.31c.45-.09.89-.16,1.29-.2.41-.05.85-.07,1.34-.07.45,0,.9.03,1.34.09.44.06.87.14,1.29.23.09.15.17.37.25.66.08.29.14.59.2.91.06.32.11.63.16.95.05.32.08.58.11.79.67-.94,1.48-1.77,2.45-2.52.97-.74,2.18-1.11,3.63-1.11.3,0,.65.02,1.04.05.39.03.68.08.86.14.06.3.11.65.14,1.04.03.39.05.8.05,1.22,0,.51-.02,1.07-.07,1.68-.05.6-.13,1.18-.25,1.72-.33-.06-.7-.09-1.11-.09h-.75c-.51,0-1.09.05-1.72.16-.64.11-1.24.39-1.82.84-.57.45-1.05,1.13-1.43,2.04-.38.91-.57,2.18-.57,3.81v11.15c-.54.09-1.09.15-1.63.18-.54.03-1.07.05-1.59.05s-1.04-.02-1.57-.05c-.53-.03-1.08-.09-1.66-.18V10.31Z"/>
  <path class="st1" d="M196.12.62c1.03-.18,2.09-.27,3.18-.27s2.16.09,3.22.27v33.13c-1.06.18-2.13.27-3.22.27s-2.15-.09-3.18-.27V.62h0ZM203.43,21.46l5.81-11.15c1.18-.18,2.37-.27,3.58-.27s2.27.09,3.36.27l-5.99,10.83,6.99,12.6c-1.24.18-2.44.27-3.58.27-1.06,0-2.18-.09-3.36-.27l-6.81-12.28h0ZM217.72,33.2l10.57-17.95h-8.98c-.09-.45-.15-.89-.18-1.31-.03-.42-.04-.85-.04-1.27,0-.39.02-.78.04-1.16.03-.38.09-.78.18-1.2h18.47l.23.54-10.75,17.95h9.98c.09.45.15.89.18,1.31.03.42.05.85.05,1.27,0,.39-.02.78-.05,1.16-.03.38-.09.78-.18,1.2h-19.15l-.36-.54Z"/>
  <g>
    <g>
      <path class="st2" d="M5.13,48.26c.06.11.12.25.16.41.05.16.07.33.08.51-.46.18-.99.27-1.59.27-1,0-1.76-.28-2.27-.85-.51-.57-.77-1.33-.77-2.3,0-.45.06-.86.19-1.25.13-.38.31-.72.56-1,.25-.28.56-.51.92-.67.37-.16.8-.25,1.28-.25.33,0,.62.02.87.06s.49.1.72.19c0,.13-.02.29-.05.46-.04.18-.08.33-.15.46-.38-.13-.82-.2-1.32-.2-.6,0-1.06.2-1.35.6-.3.4-.45.93-.45,1.59,0,.75.17,1.3.51,1.65.34.35.8.52,1.39.52.24,0,.45-.02.65-.05.2-.03.4-.09.61-.16Z"/>
      <path class="st2" d="M7.84,43.27c.09-.02.17-.03.25-.03.08,0,.16-.01.25-.01s.17,0,.26.01c.09,0,.16.02.24.03.02.12.05.27.07.46s.04.35.04.49c.16-.27.38-.5.65-.69.27-.2.62-.29,1.04-.29.06,0,.13,0,.19,0,.07,0,.12,0,.17.02.02.07.03.14.04.22,0,.08.01.16.01.25,0,.09,0,.19-.02.29s-.03.2-.04.29c-.06-.02-.13-.02-.19-.02h-.16c-.21,0-.41.03-.61.09-.19.06-.37.16-.52.31-.15.15-.27.35-.37.61-.09.26-.14.59-.14,1v3c-.09.02-.18.03-.29.04-.11,0-.2.01-.29.01s-.18,0-.29-.01c-.11,0-.21-.02-.3-.04v-6.03Z"/>
      <path class="st2" d="M14.03,46.57c.02.66.19,1.14.51,1.45.33.31.81.46,1.44.46.56,0,1.09-.1,1.59-.29.06.12.11.26.15.43.04.17.06.34.07.5-.26.11-.54.19-.85.25-.31.06-.65.08-1.03.08-.55,0-1.02-.08-1.41-.23-.39-.15-.72-.37-.97-.65s-.44-.61-.56-.99c-.12-.38-.18-.8-.18-1.25s.06-.86.17-1.25c.11-.39.29-.73.52-1.01.24-.29.53-.51.89-.68.36-.17.78-.25,1.27-.25.42,0,.78.07,1.09.21.31.14.58.34.79.58.21.25.37.54.48.88.11.34.16.71.16,1.11,0,.11,0,.23-.01.35,0,.12-.02.23-.02.31h-4.11ZM17.02,45.7c0-.22-.03-.43-.09-.63-.06-.2-.15-.37-.26-.52-.11-.15-.26-.27-.44-.36-.18-.09-.39-.14-.63-.14-.48,0-.85.14-1.1.43-.26.29-.41.69-.47,1.21h2.98Z"/>
      <path class="st2" d="M24,45.33c0-.46-.12-.78-.35-.96-.24-.18-.58-.27-1.02-.27-.27,0-.53.02-.77.06-.24.04-.47.1-.7.17-.15-.26-.22-.57-.22-.93.27-.09.56-.15.88-.2.32-.05.63-.07.93-.07.78,0,1.38.18,1.79.53.41.36.61.93.61,1.71v3.77c-.27.06-.61.13-1,.19-.39.07-.79.1-1.2.1-.38,0-.73-.04-1.04-.11-.31-.07-.57-.18-.79-.34-.22-.16-.38-.36-.5-.6-.12-.24-.18-.54-.18-.88s.07-.63.21-.89c.14-.26.32-.47.56-.64.24-.17.51-.29.81-.38.31-.08.63-.12.97-.12.25,0,.46,0,.62.02.16.01.3.03.41.04v-.22ZM24,46.47c-.12-.02-.27-.03-.45-.05-.18-.02-.33-.02-.46-.02-.49,0-.86.09-1.11.27s-.38.45-.38.82c0,.24.04.42.13.55.09.13.19.23.32.31.13.07.27.11.43.13.16.02.31.02.45.02.18,0,.37,0,.56-.03.19-.02.36-.05.51-.09v-1.92Z"/>
      <path class="st2" d="M28.23,44.2h-.92l-.05-.16,2.02-2.26h.09v1.49h1.53c.03.13.05.28.05.45,0,.09,0,.17-.01.25s-.02.16-.04.23h-1.53v2.75c0,.33.01.59.04.79.03.2.07.35.14.45.07.11.16.18.27.21.11.04.26.05.43.05.13,0,.26,0,.38-.03s.22-.04.32-.06c.05.16.09.32.1.48s.02.31.02.44c-.16.04-.32.07-.49.09-.17.02-.36.03-.55.03-.56,0-1.01-.14-1.32-.41s-.48-.73-.48-1.36v-3.42Z"/>
      <path class="st2" d="M33.69,44.19h-.77c-.02-.06-.03-.14-.04-.22,0-.08-.01-.16-.01-.24s0-.16.01-.24.02-.15.04-.22h1.91v6.03c-.09.02-.18.03-.29.04-.11,0-.2.01-.29.01-.08,0-.17,0-.28-.01-.11,0-.2-.02-.29-.04v-5.11ZM33.43,41.94c-.02-.09-.03-.2-.03-.31,0-.11,0-.21,0-.29s0-.18,0-.29c0-.11.01-.21.03-.29.1-.02.21-.03.33-.04.12,0,.22-.01.31-.01s.19,0,.31.01.22.02.32.04c.02.09.03.18.03.29,0,.11,0,.21,0,.29s0,.18,0,.29c0,.11-.01.21-.03.31-.09.02-.2.03-.31.03-.11,0-.21.01-.3.01-.09,0-.2,0-.32-.01-.12,0-.23-.02-.33-.03Z"/>
      <path class="st2" d="M37.1,43.27c.11-.02.22-.03.34-.03s.22-.01.32-.01c.1,0,.21,0,.34.01s.23.02.31.03l1.65,4.97,1.66-4.97c.09-.02.18-.03.29-.03.11,0,.22-.01.32-.01.09,0,.18,0,.29.01s.22.02.33.03l-2.35,6.03c-.1.02-.2.03-.31.04-.1,0-.2.01-.28.01s-.18,0-.28-.01c-.1,0-.19-.02-.29-.04l-2.34-6.03Z"/>
      <path class="st2" d="M45.55,44.19h-.77c-.02-.06-.03-.14-.04-.22,0-.08-.01-.16-.01-.24s0-.16.01-.24.02-.15.04-.22h1.91v6.03c-.09.02-.18.03-.29.04-.11,0-.2.01-.29.01-.08,0-.17,0-.28-.01-.11,0-.2-.02-.29-.04v-5.11ZM45.29,41.94c-.02-.09-.03-.2-.03-.31,0-.11,0-.21,0-.29s0-.18,0-.29c0-.11.01-.21.03-.29.1-.02.21-.03.33-.04.12,0,.22-.01.31-.01s.19,0,.31.01.22.02.32.04c.02.09.03.18.03.29,0,.11,0,.21,0,.29s0,.18,0,.29c0,.11-.01.21-.03.31-.09.02-.2.03-.31.03-.11,0-.21.01-.3.01-.09,0-.2,0-.32-.01-.12,0-.23-.02-.33-.03Z"/>
      <path class="st2" d="M49.93,44.2h-.92l-.05-.16,2.02-2.26h.09v1.49h1.53c.03.13.05.28.05.45,0,.09,0,.17-.01.25s-.02.16-.04.23h-1.53v2.75c0,.33.01.59.04.79.03.2.07.35.14.45.07.11.16.18.27.21.11.04.26.05.43.05.13,0,.26,0,.38-.03s.22-.04.32-.06c.05.16.09.32.1.48s.02.31.02.44c-.16.04-.32.07-.49.09-.17.02-.36.03-.55.03-.56,0-1.01-.14-1.32-.41s-.48-.73-.48-1.36v-3.42Z"/>
      <path class="st2" d="M57.09,49.31c-.06,0-.13,0-.19,0-.07,0-.13,0-.19,0-.08,0-.16,0-.25,0-.09,0-.16,0-.21-.02l-2-6.03c.1-.02.21-.03.32-.03.11,0,.21,0,.31,0,.1,0,.22,0,.34,0,.13,0,.23.01.32.03l1.67,5.61,1.73-5.61c.16-.02.36-.03.58-.03.09,0,.18,0,.29,0,.11,0,.22.01.33.03l-2.34,7.26c-.11.32-.22.59-.34.81s-.25.4-.4.53c-.15.13-.32.23-.5.28-.18.06-.4.08-.64.08-.18,0-.36-.01-.54-.04-.18-.03-.33-.06-.47-.1,0-.18.02-.34.05-.48.03-.14.08-.28.14-.42.07.02.17.05.29.08.12.03.25.04.39.04.1,0,.2-.01.29-.03.09-.02.17-.06.25-.12.08-.06.15-.14.22-.25.07-.11.13-.26.19-.45l.36-1.14Z"/>
    </g>
    <g>
      <path class="st2" d="M81.66,44.19h-.77c-.02-.06-.03-.14-.04-.22,0-.08-.01-.16-.01-.24s0-.16.01-.24.02-.15.04-.22h1.91v6.03c-.09.02-.18.03-.29.04-.11,0-.2.01-.29.01-.08,0-.17,0-.28-.01-.11,0-.2-.02-.29-.04v-5.11ZM81.4,41.94c-.02-.09-.03-.2-.03-.31,0-.11,0-.21,0-.29s0-.18,0-.29c0-.11.01-.21.03-.29.1-.02.21-.03.33-.04.12,0,.22-.01.31-.01s.19,0,.31.01.22.02.32.04c.02.09.03.18.03.29,0,.11,0,.21,0,.29s0,.18,0,.29c0,.11-.01.21-.03.31-.09.02-.2.03-.31.03-.11,0-.21.01-.3.01-.09,0-.2,0-.32-.01-.12,0-.23-.02-.33-.03Z"/>
      <path class="st2" d="M85.8,43.27c.09-.02.17-.03.25-.03.08,0,.17-.01.25-.01s.17,0,.24.01c.07,0,.15.02.24.03.02.12.05.28.07.48s.04.37.04.5c.08-.13.18-.27.3-.4.12-.13.26-.25.42-.36.16-.11.34-.19.54-.26.2-.07.43-.1.67-.1.69,0,1.2.2,1.53.59.33.4.49.98.49,1.76v3.82c-.09.02-.18.03-.29.04-.11,0-.21.01-.29.01s-.18,0-.29-.01c-.11,0-.2-.02-.29-.04v-3.5c0-.56-.09-.97-.26-1.23-.17-.26-.45-.39-.82-.39-.22,0-.43.04-.62.12-.2.08-.37.2-.52.36s-.27.38-.36.64c-.09.26-.14.58-.14.95v3.06c-.09.02-.18.03-.29.04-.11,0-.2.01-.29.01s-.18,0-.29-.01c-.11,0-.21-.02-.29-.04v-6.03Z"/>
      <path class="st2" d="M93.72,43.27c.09-.02.17-.03.25-.03.08,0,.17-.01.25-.01s.17,0,.24.01c.07,0,.15.02.24.03.02.12.05.28.07.48s.04.37.04.5c.08-.13.18-.27.3-.4.12-.13.26-.25.42-.36.16-.11.34-.19.54-.26.2-.07.43-.1.67-.1.69,0,1.2.2,1.53.59.33.4.49.98.49,1.76v3.82c-.09.02-.18.03-.29.04-.11,0-.21.01-.29.01s-.18,0-.29-.01c-.11,0-.2-.02-.29-.04v-3.5c0-.56-.09-.97-.26-1.23-.17-.26-.45-.39-.82-.39-.22,0-.43.04-.62.12-.2.08-.37.2-.52.36s-.27.38-.36.64c-.09.26-.14.58-.14.95v3.06c-.09.02-.18.03-.29.04-.11,0-.2.01-.29.01s-.18,0-.29-.01c-.11,0-.21-.02-.29-.04v-6.03Z"/>
      <path class="st2" d="M104.08,49.44c-.47,0-.88-.08-1.24-.24-.35-.16-.65-.38-.88-.66-.24-.28-.41-.62-.52-1-.11-.38-.17-.8-.17-1.25s.06-.86.17-1.25c.11-.38.29-.72.52-1,.24-.28.53-.51.88-.67.35-.16.77-.25,1.24-.25s.88.08,1.24.25c.35.17.65.39.88.67.24.28.41.62.52,1s.17.8.17,1.25-.06.86-.17,1.25-.29.72-.52,1c-.24.28-.53.5-.88.66-.35.16-.77.24-1.24.24ZM104.08,48.51c.54,0,.94-.2,1.2-.59.26-.39.39-.94.39-1.63s-.13-1.24-.39-1.63c-.26-.39-.66-.58-1.2-.58s-.94.19-1.19.58c-.26.39-.38.93-.38,1.63s.13,1.24.38,1.63c.25.39.65.59,1.19.59Z"/>
      <path class="st2" d="M108.56,43.27c.11-.02.22-.03.34-.03s.22-.01.32-.01c.1,0,.21,0,.34.01s.23.02.31.03l1.65,4.97,1.66-4.97c.09-.02.18-.03.29-.03.11,0,.22-.01.32-.01.09,0,.18,0,.29.01s.22.02.33.03l-2.35,6.03c-.1.02-.2.03-.31.04-.1,0-.2.01-.28.01s-.18,0-.28-.01c-.1,0-.19-.02-.29-.04l-2.34-6.03Z"/>
      <path class="st2" d="M119.86,45.33c0-.46-.12-.78-.35-.96-.24-.18-.58-.27-1.02-.27-.27,0-.53.02-.77.06-.24.04-.47.1-.7.17-.15-.26-.22-.57-.22-.93.27-.09.56-.15.88-.2.32-.05.63-.07.93-.07.78,0,1.38.18,1.79.53.41.36.61.93.61,1.71v3.77c-.27.06-.61.13-1,.19-.39.07-.79.1-1.2.1-.38,0-.73-.04-1.04-.11-.31-.07-.57-.18-.79-.34-.22-.16-.38-.36-.5-.6-.12-.24-.18-.54-.18-.88s.07-.63.21-.89c.14-.26.32-.47.56-.64.24-.17.51-.29.81-.38.31-.08.63-.12.97-.12.25,0,.46,0,.62.02.16.01.3.03.41.04v-.22ZM119.86,46.47c-.12-.02-.27-.03-.45-.05-.18-.02-.33-.02-.46-.02-.49,0-.86.09-1.11.27s-.38.45-.38.82c0,.24.04.42.13.55.09.13.19.23.32.31.13.07.27.11.43.13.16.02.31.02.45.02.18,0,.37,0,.56-.03.19-.02.36-.05.51-.09v-1.92Z"/>
      <path class="st2" d="M124.09,44.2h-.92l-.05-.16,2.02-2.26h.09v1.49h1.53c.03.13.05.28.05.45,0,.09,0,.17-.01.25s-.02.16-.04.23h-1.53v2.75c0,.33.01.59.04.79.03.2.07.35.14.45.07.11.16.18.27.21.11.04.26.05.43.05.13,0,.26,0,.38-.03s.22-.04.32-.06c.05.16.09.32.1.48s.02.31.02.44c-.16.04-.32.07-.49.09-.17.02-.36.03-.55.03-.56,0-1.01-.14-1.32-.41s-.48-.73-.48-1.36v-3.42Z"/>
      <path class="st2" d="M129.54,44.19h-.77c-.02-.06-.03-.14-.04-.22,0-.08-.01-.16-.01-.24s0-.16.01-.24.02-.15.04-.22h1.91v6.03c-.09.02-.18.03-.29.04-.11,0-.2.01-.29.01-.08,0-.17,0-.28-.01-.11,0-.2-.02-.29-.04v-5.11ZM129.28,41.94c-.02-.09-.03-.2-.03-.31,0-.11,0-.21,0-.29s0-.18,0-.29c0-.11.01-.21.03-.29.1-.02.21-.03.33-.04.12,0,.22-.01.31-.01s.19,0,.31.01.22.02.32.04c.02.09.03.18.03.29,0,.11,0,.21,0,.29s0,.18,0,.29c0,.11-.01.21-.03.31-.09.02-.2.03-.31.03-.11,0-.21.01-.3.01-.09,0-.2,0-.32-.01-.12,0-.23-.02-.33-.03Z"/>
      <path class="st2" d="M136.14,49.44c-.47,0-.88-.08-1.24-.24-.35-.16-.65-.38-.88-.66-.24-.28-.41-.62-.52-1-.11-.38-.17-.8-.17-1.25s.06-.86.17-1.25c.11-.38.29-.72.52-1,.24-.28.53-.51.88-.67.35-.16.77-.25,1.24-.25s.88.08,1.24.25c.35.17.65.39.88.67.24.28.41.62.52,1s.17.8.17,1.25-.06.86-.17,1.25-.29.72-.52,1c-.24.28-.53.5-.88.66-.35.16-.77.24-1.24.24ZM136.14,48.51c.54,0,.94-.2,1.2-.59.26-.39.39-.94.39-1.63s-.13-1.24-.39-1.63c-.26-.39-.66-.58-1.2-.58s-.94.19-1.19.58c-.26.39-.38.93-.38,1.63s.13,1.24.38,1.63c.25.39.65.59,1.19.59Z"/>
      <path class="st2" d="M141.6,43.27c.09-.02.17-.03.25-.03.08,0,.17-.01.25-.01s.17,0,.24.01c.07,0,.15.02.24.03.02.12.05.28.07.48s.04.37.04.5c.08-.13.18-.27.3-.4.12-.13.26-.25.42-.36.16-.11.34-.19.54-.26.2-.07.43-.1.67-.1.69,0,1.2.2,1.53.59.33.4.49.98.49,1.76v3.82c-.09.02-.18.03-.29.04-.11,0-.21.01-.29.01s-.18,0-.29-.01c-.11,0-.2-.02-.29-.04v-3.5c0-.56-.09-.97-.26-1.23-.17-.26-.45-.39-.82-.39-.22,0-.43.04-.62.12-.2.08-.37.2-.52.36s-.27.38-.36.64c-.09.26-.14.58-.14.95v3.06c-.09.02-.18.03-.29.04-.11,0-.2.01-.29.01s-.18,0-.29-.01c-.11,0-.21-.02-.29-.04v-6.03Z"/>
    </g>
    <g>
      <path class="st2" d="M168.33,44.2h-.92l-.05-.16,2.02-2.26h.09v1.49h1.53c.03.13.05.28.05.45,0,.09,0,.17-.01.25s-.02.16-.04.23h-1.53v2.75c0,.33.01.59.04.79.03.2.07.35.14.45.07.11.16.18.27.21.11.04.26.05.43.05.13,0,.26,0,.38-.03s.22-.04.32-.06c.05.16.09.32.1.48s.02.31.02.44c-.16.04-.32.07-.49.09-.17.02-.36.03-.55.03-.56,0-1.01-.14-1.32-.41s-.48-.73-.48-1.36v-3.42Z"/>
      <path class="st2" d="M174.3,46.57c.02.66.19,1.14.51,1.45.33.31.81.46,1.44.46.56,0,1.09-.1,1.59-.29.06.12.11.26.15.43.04.17.06.34.07.5-.26.11-.54.19-.85.25-.31.06-.65.08-1.03.08-.55,0-1.02-.08-1.41-.23-.39-.15-.72-.37-.97-.65s-.44-.61-.56-.99c-.12-.38-.18-.8-.18-1.25s.06-.86.17-1.25c.11-.39.29-.73.52-1.01.24-.29.53-.51.89-.68.36-.17.78-.25,1.27-.25.42,0,.78.07,1.09.21.31.14.58.34.79.58.21.25.37.54.48.88.11.34.16.71.16,1.11,0,.11,0,.23-.01.35,0,.12-.02.23-.02.31h-4.11ZM177.29,45.7c0-.22-.03-.43-.09-.63-.06-.2-.15-.37-.26-.52-.11-.15-.26-.27-.44-.36-.18-.09-.39-.14-.63-.14-.48,0-.85.14-1.1.43-.26.29-.41.69-.47,1.21h2.98Z"/>
      <path class="st2" d="M185.12,48.26c.06.11.12.25.16.41.05.16.07.33.08.51-.46.18-.99.27-1.59.27-1,0-1.76-.28-2.27-.85-.51-.57-.77-1.33-.77-2.3,0-.45.06-.86.19-1.25.13-.38.31-.72.56-1,.25-.28.56-.51.92-.67.37-.16.8-.25,1.28-.25.33,0,.62.02.87.06s.49.1.72.19c0,.13-.02.29-.05.46-.04.18-.08.33-.15.46-.38-.13-.82-.2-1.32-.2-.6,0-1.06.2-1.35.6-.3.4-.45.93-.45,1.59,0,.75.17,1.3.51,1.65.34.35.8.52,1.39.52.24,0,.45-.02.65-.05.2-.03.4-.09.61-.16Z"/>
      <path class="st2" d="M187.82,40.68c.09-.02.18-.03.29-.03.11,0,.2-.01.29-.01s.18,0,.29.01c.11,0,.21.02.29.03v3.5c.07-.11.16-.23.26-.35.11-.13.24-.24.39-.35.15-.11.33-.19.53-.26.2-.07.42-.1.67-.1.69,0,1.2.2,1.54.59.33.4.5.98.5,1.76v3.82c-.09.02-.18.03-.29.04-.11,0-.2.01-.29.01s-.18,0-.29-.01c-.11,0-.2-.02-.29-.04v-3.5c0-.56-.09-.97-.28-1.23-.18-.26-.47-.39-.84-.39-.21,0-.42.04-.61.11-.2.07-.37.19-.52.35-.15.16-.27.37-.35.63-.09.26-.13.57-.13.94v3.09c-.09.02-.18.03-.29.04-.11,0-.21.01-.29.01-.08,0-.17,0-.28-.01-.11,0-.21-.02-.29-.04v-8.62Z"/>
      <path class="st2" d="M195.74,43.27c.09-.02.17-.03.25-.03.08,0,.17-.01.25-.01s.17,0,.24.01c.07,0,.15.02.24.03.02.12.05.28.07.48s.04.37.04.5c.08-.13.18-.27.3-.4.12-.13.26-.25.42-.36.16-.11.34-.19.54-.26.2-.07.43-.1.67-.1.69,0,1.2.2,1.53.59.33.4.49.98.49,1.76v3.82c-.09.02-.18.03-.29.04-.11,0-.21.01-.29.01s-.18,0-.29-.01c-.11,0-.2-.02-.29-.04v-3.5c0-.56-.09-.97-.26-1.23-.17-.26-.45-.39-.82-.39-.22,0-.43.04-.62.12-.2.08-.37.2-.52.36s-.27.38-.36.64c-.09.26-.14.58-.14.95v3.06c-.09.02-.18.03-.29.04-.11,0-.2.01-.29.01s-.18,0-.29-.01c-.11,0-.21-.02-.29-.04v-6.03Z"/>
      <path class="st2" d="M206.11,49.44c-.47,0-.88-.08-1.24-.24-.35-.16-.65-.38-.88-.66-.24-.28-.41-.62-.52-1-.11-.38-.17-.8-.17-1.25s.06-.86.17-1.25c.11-.38.29-.72.52-1,.24-.28.53-.51.88-.67.35-.16.77-.25,1.24-.25s.88.08,1.24.25c.35.17.65.39.88.67.24.28.41.62.52,1s.17.8.17,1.25-.06.86-.17,1.25-.29.72-.52,1c-.24.28-.53.5-.88.66-.35.16-.77.24-1.24.24ZM206.11,48.51c.54,0,.94-.2,1.2-.59.26-.39.39-.94.39-1.63s-.13-1.24-.39-1.63c-.26-.39-.66-.58-1.2-.58s-.94.19-1.19.58c-.26.39-.38.93-.38,1.63s.13,1.24.38,1.63c.25.39.65.59,1.19.59Z"/>
      <path class="st2" d="M211.54,40.68c.09-.02.18-.03.29-.03.11,0,.2-.01.29-.01s.18,0,.29.01c.11,0,.2.02.29.03v6.8c0,.22.02.39.06.52.04.13.09.22.16.29.07.07.15.11.24.13.09.02.19.03.29.03.07,0,.15,0,.24-.01.09,0,.17-.02.23-.04.07.27.11.57.11.89-.11.04-.24.06-.4.08-.16.01-.3.02-.44.02-.23,0-.44-.03-.64-.08-.2-.06-.37-.14-.52-.27s-.27-.29-.35-.51c-.09-.21-.13-.47-.13-.79v-7.06Z"/>
      <path class="st2" d="M218.63,49.44c-.47,0-.88-.08-1.24-.24-.35-.16-.65-.38-.88-.66-.24-.28-.41-.62-.52-1-.11-.38-.17-.8-.17-1.25s.06-.86.17-1.25c.11-.38.29-.72.52-1,.24-.28.53-.51.88-.67.35-.16.77-.25,1.24-.25s.88.08,1.24.25c.35.17.65.39.88.67.24.28.41.62.52,1s.17.8.17,1.25-.06.86-.17,1.25-.29.72-.52,1c-.24.28-.53.5-.88.66-.35.16-.77.24-1.24.24ZM218.63,48.51c.54,0,.94-.2,1.2-.59.26-.39.39-.94.39-1.63s-.13-1.24-.39-1.63c-.26-.39-.66-.58-1.2-.58s-.94.19-1.19.58c-.26.39-.38.93-.38,1.63s.13,1.24.38,1.63c.25.39.65.59,1.19.59Z"/>
      <path class="st2" d="M227.27,48.53c.7.02,1.2.16,1.52.45.31.28.47.67.47,1.16,0,.32-.08.61-.25.86-.16.26-.39.47-.68.66-.29.18-.63.33-1.03.42s-.83.15-1.29.15c-.81,0-1.42-.13-1.85-.38s-.64-.65-.64-1.19c0-.32.09-.61.26-.86.17-.26.4-.46.67-.61-.16-.1-.29-.23-.39-.38s-.16-.34-.16-.57c0-.29.06-.54.19-.75s.3-.4.52-.56c-.26-.18-.47-.41-.62-.7-.16-.29-.24-.61-.24-.97,0-.3.05-.58.16-.83.11-.26.27-.48.48-.68.21-.19.47-.34.77-.45.31-.11.66-.16,1.05-.16.35,0,.67.05.96.15.29.1.53.23.74.39.16-.13.37-.23.64-.31.27-.08.56-.12.88-.12.03.15.05.31.05.49,0,.09,0,.18-.01.27,0,.09-.02.19-.04.28h-1.06c.09.13.15.28.2.43.05.16.07.34.07.54,0,.32-.06.61-.18.87s-.28.48-.5.66c-.22.18-.47.33-.77.42-.3.1-.62.15-.98.15-.32,0-.61-.03-.87-.11-.11.06-.22.16-.32.29-.11.13-.16.27-.16.42s.05.26.15.37c.1.11.33.16.68.17l1.57.02ZM225.68,49.46c-.35,0-.62.09-.79.28-.18.2-.26.43-.26.71,0,.17.04.31.11.42.07.11.17.2.3.26s.28.11.46.14c.18.03.37.04.58.04.63,0,1.12-.1,1.47-.31.35-.21.53-.47.53-.78,0-.24-.07-.42-.22-.54-.15-.13-.42-.19-.82-.2l-1.34-.02ZM226.22,46.52c.42,0,.74-.12.94-.35.2-.23.31-.54.31-.91s-.1-.68-.31-.92c-.2-.24-.52-.36-.94-.36s-.74.12-.94.36c-.2.24-.3.55-.3.92s.1.67.3.91c.2.24.51.35.94.35Z"/>
      <path class="st2" d="M233.71,49.31c-.06,0-.13,0-.19,0-.07,0-.13,0-.19,0-.08,0-.16,0-.25,0-.09,0-.16,0-.21-.02l-2-6.03c.1-.02.21-.03.32-.03.11,0,.21,0,.31,0,.1,0,.22,0,.34,0,.13,0,.23.01.32.03l1.67,5.61,1.73-5.61c.16-.02.36-.03.58-.03.09,0,.18,0,.29,0,.11,0,.22.01.33.03l-2.34,7.26c-.11.32-.22.59-.34.81s-.25.4-.4.53c-.15.13-.32.23-.5.28-.18.06-.4.08-.64.08-.18,0-.36-.01-.54-.04-.18-.03-.33-.06-.47-.1,0-.18.02-.34.05-.48.03-.14.08-.28.14-.42.07.02.17.05.29.08.12.03.25.04.39.04.1,0,.2-.01.29-.03.09-.02.17-.06.25-.12.08-.06.15-.14.22-.25.07-.11.13-.26.19-.45l.36-1.14Z"/>
    </g>
    <polygon class="st0" points="67.46 49.31 67.46 42.9 73.51 46.11 67.46 49.31 67.46 49.31"/>
    <polygon class="st0" points="153.98 49.31 153.98 42.9 160.03 46.11 153.98 49.31 153.98 49.31"/>
  </g>
  <path class="st1" d="M.76,10.63h6.3v23.43c-1.09.18-2.15.27-3.18.27s-2.04-.09-3.13-.27v-17.41h.01v-6.02Z"/>
  <polygon class="st1" points="0 .34 7.81 .34 3.9 7.69 0 .34"/>
  <path class="st1" d="M106.04,10.63h6.3v23.43c-1.09.18-2.15.27-3.18.27s-2.04-.09-3.13-.27v-17.41h.01v-6.02Z"/>
  <polygon class="st1" points="105.28 .34 113.09 .34 109.19 7.69 105.28 .34"/>
  <path class="st1" d="M163.86,9.06c1.08,0,2.13.14,3.13.41l-1.93,3.85c-.39-.06-.79-.09-1.2-.09-4.39,0-7.95,3.53-7.95,7.89,0,2.22.93,4.23,2.42,5.67h0s0,0,0,0c1.43,1.38,3.38,2.22,5.53,2.22,4.39,0,7.95-3.54,7.95-7.89,0-.67-.08-1.31-.24-1.93l3.73-2.14c.46,1.27.71,2.64.71,4.07,0,6.66-5.44,12.06-12.14,12.06s-12.14-5.4-12.14-12.06,5.44-12.06,12.14-12.06Z"/>
  <path class="st0" d="M163.86,15.18c.56,0,1.11.08,1.62.22l-.91,1.91c-.23-.04-.47-.06-.71-.06-2.16,0-3.9,1.74-3.9,3.88s1.75,3.88,3.9,3.88,3.9-1.74,3.9-3.88c0-.36-.05-.7-.14-1.03l1.84-1.04c.24.64.37,1.34.37,2.07,0,3.28-2.68,5.94-5.98,5.94s-5.98-2.66-5.98-5.94,2.68-5.94,5.98-5.94Z"/>
  <path class="st1" d="M168.93,10.17c2.28,1.1,4.23,2.68,5.59,5.2l-11.48,6.59,5.89-11.79Z"/>
  <path class="st2" d="M242.75,10.92c-.48,0-.93-.08-1.33-.25s-.74-.39-1.02-.68c-.28-.29-.5-.63-.66-1.03s-.24-.83-.24-1.29.08-.89.24-1.29.38-.74.66-1.03c.28-.29.62-.52,1.02-.68s.84-.25,1.33-.25.93.08,1.33.24.74.39,1.02.68c.28.29.5.64.66,1.03.16.4.24.83.24,1.29s-.08.9-.24,1.29-.38.74-.66,1.03c-.28.29-.62.52-1.02.68s-.84.25-1.33.25ZM242.75,10.35c.41,0,.77-.07,1.09-.21.32-.14.59-.33.82-.57.22-.24.4-.52.52-.85s.18-.68.18-1.06-.06-.72-.18-1.05c-.12-.33-.29-.61-.52-.85s-.5-.43-.82-.57-.69-.21-1.09-.21-.77.07-1.09.21-.6.33-.82.57c-.22.24-.39.52-.51.85-.12.33-.18.68-.18,1.05s.06.73.18,1.06c.12.33.29.61.51.85.22.24.5.43.82.57.32.14.69.21,1.09.21ZM241.68,5.92c.15-.02.3-.03.44-.04s.3-.02.47-.02c.21,0,.4.02.58.06.18.04.32.1.45.18s.22.19.3.32c.07.13.11.29.11.47,0,.26-.06.47-.19.63-.13.16-.27.28-.42.35l.92,1.39c-.08.01-.16.02-.22.02s-.13,0-.2,0c-.12,0-.24,0-.34-.03l-1-1.56.17-.08c.14-.06.27-.15.4-.26.13-.11.19-.25.19-.42s-.06-.3-.18-.39-.28-.14-.48-.14c-.05,0-.1,0-.15,0s-.11,0-.18.02v2.82c-.09.02-.2.03-.32.03s-.24,0-.34-.03v-3.37Z"/>
</svg>