<?xml version="1.0" encoding="utf-8"?>
<!-- Generator: Adobe Illustrator 27.0.0, SVG Export Plug-In . SVG Version: 6.00 Build 0)  -->
<svg version="1.1" id="Layer_1" xmlns="http://www.w3.org/2000/svg" xmlns:xlink="http://www.w3.org/1999/xlink" x="0px" y="0px"
	 viewBox="0 0 175 92" style="enable-background:new 0 0 175 92;" xml:space="preserve">
<style type="text/css">
	.st0{fill:#ED7123;}
	.st1{fill:#151616;}
</style>
<g>
	<path class="st0" d="M14.9,18h1.7c0.9,0.6,1.6,1.4,2,2.4l-0.2,1.1c0.5,0.5,0.7,0.8,0.7,0.9c-0.2,0-1,0.5-2.4,1.5
		c-1.8,0-5,1.4-9.5,4.2c0,0.2,1.6,0.6,4.8,1.3c3.5,1,5.9,2.4,7.3,4.2c0.6,0.9,1.4,3.3,2.2,7c0,1.8-1,3.3-3,4.2
		c-0.2-0.1-0.4-0.2-0.6-0.2c-0.7,0.4-1.3,0.6-2,0.6c0-0.3-0.5-0.6-1.5-0.7c-0.7,0.3-1.1,0.4-1.1,0.4c0-0.1-0.3-0.4-0.9-0.7
		c-1.4,0.3-2.3,0.5-2.6,0.5H9.7v-0.4h0.9c1.9-0.9,2.9-1.3,3.1-1.3l-0.4-0.6l-0.9,0.2h-1.3c-0.3,0-0.5-0.1-0.8-0.2l-0.4,0.2l-0.4-0.2
		l-0.4,0.2c-0.2-0.1-0.4-0.2-0.6-0.2c0,0.4-1.3,0.8-3.9,1.3l-1.1-0.7l0.4-0.2l-0.2-0.4c0.1-0.2,0.2-0.4,0.4-0.4
		c0.3,0,0.4,0.3,0.4,0.7c4.2-0.5,6.9-1.3,8.2-2.2h-0.5v-0.4c0-0.7,0.9-1.5,2.8-2.2l0.2-0.4c-1.4-0.8-4.5-1.6-9.3-2.2
		c-2.5,0-4.4-3-5.8-9c0-1.5,1-2.8,3-3.9c0.4,0.1,0.6,0.3,0.6,0.4c1.5-0.5,3.2-1.5,5-3.1C11.2,18.6,13.3,18,14.9,18L14.9,18z
		 M7.8,44.5L9,44.7v0.2c0,0.3-0.7,0.6-2.3,0.9l-0.4-0.2c-0.2,0.1-0.5,0.2-0.7,0.2H5.1v-0.4C5.1,45.1,6,44.8,7.8,44.5L7.8,44.5z
		 M34.7,2.6c0.1,0.2,0.2,0.5,0.2,1c0.3,0,0.4-0.1,0.4-0.4c-0.1-0.3-0.2-0.5-0.2-0.6h0.6c0.1,0,0.6,0.5,1.6,1.6
		c-0.7,6.6-1.6,12.2-2.8,16.9h0.2c3.1-2,5.7-3,7.9-3c2.1,0,3.8,0.9,5.2,2.6c2.3,1.8,4,4.1,5.1,6.8l0.2,1.4c0,2.3-0.9,6.6-2.9,12.8
		l-1.8,7.6h-0.2c-0.6,0-1.1-0.3-1.4-1c-0.3,0-0.8-0.6-1.4-1.8c-1.7-1.4-2.6-2.5-2.6-3.3v-0.8c0-2.3,1.1-7,3.4-13.8
		c0.3-1.5,0.4-2.7,0.4-3.4h-0.2c-4.5,0-9.9,4.3-16.2,13c-2,4.1-3.3,6.4-3.9,7L26,45.5c-2.9-2.7-4.7-4.6-5.2-5.8v-0.2
		c0-0.7,1.6-3.9,4.6-9.6c0,0.1,0.1,0.2,0.2,0.2c0-0.1,0.1-0.3,0.2-0.6l-0.2-0.8c0.8-1.7,1.7-4.6,2.9-8.8c0.4,0,1.2-2.5,2.4-7.4
		c0.3-0.1,0.7-2.1,1.2-5.8h0.4v1c0,1-0.3,2.8-1,5.4v0.2h0.2c0.4-0.7,0.8-2.5,1.2-5.4c0.8-1.5,1.3-3.2,1.6-5.2H34.7z M81.6,17.9
		c0.4,0,1.3,0.4,2.5,1.3l1.1,1.5v1c1.7,1,2.5,2.2,2.5,3.4c-1.7,4.2-3.2,9.2-4.7,15c-0.2,0-0.8,1.6-1.7,4.6c-2.6,6-5,10.8-7.2,14.2
		c-0.3,0-0.8,1-1.7,3.2c-4.5,5.7-7.5,8.7-8.9,8.9c0,0.8-1.3,1.6-4,2.5c0,0.3-1,0.7-3,1.1L56.3,74v-0.2l3.4-2.1v-0.2H59
		c-1.7,0.9-2.6,1.4-2.6,1.5v0.2h-0.7c-0.5,0-1.2,0.2-2.3,0.6V74h0.2c0.2-0.1,0.5-0.2,0.8-0.2v0.4c0,0.4-1.3,0.8-3.8,1.3l-1.3-0.2H49
		c-0.5,0-1.2,0.1-1.9,0.2c-4.7-1-7.8-2.2-9.4-3.6c-4-2.7-6-5.3-6-7.8h0.4c0.6,1.7,2.7,3.5,6.2,5.5c2.9,1,5,1.6,6.4,1.7
		c2.2-0.7,3.7-1,4.5-1l0.2,0.4c2.8-0.7,4.3-1.3,4.3-1.7v-0.2h-0.4c0-0.2,0.2-0.4,0.6-0.6c0.1,0.4,0.3,0.6,0.4,0.6
		c1.6-0.6,2.3-0.9,2.3-1v-0.3c-0.1,0-0.7,0.2-1.7,0.4c0-0.3-0.2-0.4-0.6-0.4V67h1l0.4,0.2c0-0.2,0.2-0.4,0.7-0.6
		c0,0.3,0.2,0.4,0.4,0.4c1.1,0,1.7-0.5,1.7-1.5h0.2v-0.6h-0.4v-0.2c7-7.2,10.7-12.2,11.3-14.8c0.8-0.9,1.7-2.7,2.7-5.5h-0.2
		c-1.9,1.4-3.8,2.1-5.8,2.1h-0.2c-2.8,0-5.4-2.2-8.1-6.6C56,37.9,55,35.1,55,31.3v-0.4c0.1-0.8,0.3-1.2,0.6-1.2h0.2v0.6h0.4
		c2.1-4.7,3.8-8,4.9-9.9c0-0.6,0.9-1.3,2.6-1.9h1c0.2,0,0.8,0.8,1.9,2.3c-0.4,1.5-0.6,2.4-0.6,2.5c0.3,0.5,0.4,0.9,0.4,1.3V25
		c-3.3,4.5-4.9,8.3-4.9,11.4c0,1.3,0.3,1.9,0.8,1.9c3.6,0,8.3-4.1,14-12.2L81.6,17.9z M73.7,51.6l-0.2,0.8c0.3,0,0.4-0.2,0.4-0.6
		v-0.2H73.7z M75.2,53.3v0.2c0.3,0,0.4-0.1,0.4-0.4v-0.2C75.3,52.9,75.2,53.1,75.2,53.3L75.2,53.3z M72.4,53.7l-0.6,0.8v0.6H72
		c0-0.2,0.3-0.6,0.9-1.2L72.4,53.7z M74.5,54.1L74.3,55c0.3,0,0.4-0.2,0.4-0.6v-0.2H74.5z M73.5,56.5v0.4c0.3,0,0.4-0.2,0.4-0.4V56
		C73.6,56.1,73.5,56.2,73.5,56.5L73.5,56.5z M70.1,56.9v0.6h0.8v-0.2c0-0.3-0.1-0.4-0.4-0.4H70.1z M69.2,59v0.2
		c0.2,0,0.4-0.2,0.6-0.6h-0.2C69.4,58.6,69.2,58.7,69.2,59L69.2,59z M68.4,60v0.2c0.3,0,0.4-0.1,0.4-0.4v-0.2
		C68.5,59.7,68.4,59.8,68.4,60L68.4,60z M60.5,63.6c0.1,0.3,0.2,0.5,0.2,0.6c-0.6,0.2-0.8,0.4-0.8,0.6v0.4c0.8-0.7,1.2-1.4,1.2-2.1
		C60.7,63.3,60.5,63.5,60.5,63.6L60.5,63.6z M65,64.1c0,0.2-0.1,0.4-0.2,0.6H65l0.2-0.4v-0.2H65z M62.6,65.9v0.4
		c0.4-0.1,0.7-0.4,0.8-0.8h-0.4C62.8,65.6,62.6,65.7,62.6,65.9L62.6,65.9z M65,66.8v0.6h0.2c0.3,0,0.4-0.1,0.4-0.4l-0.4-0.2H65z
		 M63.9,67.2v0.2c0.1,0,0.4,0.1,0.6,0.3v-0.5H63.9z M60.7,67.4v0.9c0.2,0,0.4-0.3,0.6-0.9H60.7z M55,71.4v0.2h0.2
		c0.5-0.9,1.1-1.3,1.7-1.3c0.3,0,0.9-0.4,1.9-1v-0.6C56.2,69.6,55,70.6,55,71.4L55,71.4z M53.7,69.7v0.6h0.4c0.2,0,0.4-0.3,0.6-0.8
		h-0.2C54.3,69.7,54,69.7,53.7,69.7L53.7,69.7z M52.2,70.2v0.2h0.4c0.3-0.1,0.6-0.2,0.9-0.2V70h-0.4C52.8,70.1,52.5,70.2,52.2,70.2
		L52.2,70.2z M53.1,71.2c0,0.3-0.3,0.4-0.8,0.4v0.4h1.3c0.2,0,0.4-0.2,0.6-0.6L53.1,71.2z M49.6,74.8h0.5c1.6-0.3,2.3-0.6,2.3-0.8
		h-0.2C50.5,74.3,49.6,74.5,49.6,74.8L49.6,74.8z M112.1,16.5V17l-0.6,0.8c0.2,0,0.4,0.2,0.6,0.6l0.8-0.2c2,0.2,4.5,1.1,7.3,2.8
		c0,0.3,0.2,0.7,0.6,1.2c-0.5,3.8-1,8.2-1.5,13.3l0.2,0.4l-0.2,0.4l0.2,0.4c0,0.2-0.1,0.4-0.2,0.6c0,2.5,0.8,3.8,2.5,3.8l1.8-0.2
		c0.6,1.6,1.1,2.4,1.7,2.4c0.1,0,0.2,0.1,0.2,0.2L125,44c0.8,1,1.2,1.6,1.2,2.1c-0.9,0.6-1.6,1.2-2,1.8h-1.3c-2,0-4.7-2.9-8.1-8.7
		c-0.8-2.4-1.2-3.7-1.4-3.8c-1.6,1.2-2.5,2-2.5,2.3h-0.4l1-1.7v-0.4l-0.8-0.2l-0.8,0.8c0,0.1,0.1,0.2,0.2,0.2
		c-0.1,0.3-0.2,0.5-0.2,0.6l-0.4-0.2h-0.2c0,1.1-0.6,2.1-1.8,2.8c0-0.1-0.1-0.2-0.2-0.2l-0.4,1.2h0.2c0.7-0.3,1.5-0.9,2.5-1.8h0.2
		v0.2l-3.3,3.4c-1.5,1.5-2.4,2.3-2.8,2.4c-1.2,0.8-2.8,1.4-4.7,1.8c-3,0-5.2-1.2-6.5-3.6c-2.4-2.6-3.7-5-3.7-7.1
		c0-2.3,1.6-5.8,4.7-10.5l1.4-1.5v0.4c-1.4,2.1-2.9,4.5-4.3,7.1c0.1,0.3,0.2,0.5,0.2,0.6c-0.3,0-0.5,0.6-0.6,1.8
		c1.2-2.3,1.8-3.7,1.8-4.2c3.9-5.7,7.4-9.1,10.4-10.1c1.1,0,2.4-0.7,3.9-2.2c0.7,0.1,1.2,0.2,1.3,0.2
		C108.4,17.2,109.9,16.8,112.1,16.5L112.1,16.5z M110.3,18l0.4,0.2l0.2-0.4v-0.2h-0.2C110.4,17.6,110.3,17.7,110.3,18L110.3,18z
		 M109.1,18c0,0.1-0.1,0.3-0.2,0.6h0.4c0.3-0.1,0.5-0.2,0.6-0.2c0-0.3-0.1-0.4-0.4-0.4H109.1z M102.6,26c0.3,0.1,0.5,0.2,0.6,0.2
		c0,0.6-1.1,1.9-3.4,4c-3,4-4.5,6.8-4.5,8.5v0.4l0.2,0.4c3.8-0.8,8.4-4.6,13.6-11.5h0.4v0.2c-0.1,0.3-0.2,0.5-0.2,0.6
		c0.1,0,0.2,0.1,0.2,0.2c-0.1,0-0.3,0.1-0.6,0.2c0.1,0.3,0.2,0.5,0.2,0.6c0.7-0.8,1.2-1.2,1.4-1.2c0-0.1,0.1-0.2,0.2-0.2h0.2
		c0.2,0,0.4,0.3,0.6,1c0.2,0,0.9-0.7,1.9-2.2V27c0-0.3-0.1-0.4-0.4-0.4h-0.2L113,27l-0.8,0.6c0-0.1-0.1-0.2-0.2-0.2l0.2-0.4v-0.2
		l-0.4,0.2h-0.2v-0.4c0-0.3,0.2-0.4,0.4-0.4l-0.2-0.4c0-0.2,0.5-0.9,1.4-2c0.9-1.6,1.4-2.6,1.4-3h-0.2c-0.4,0.4-1,1.4-1.6,3
		c-1.7,2.3-2.6,3.4-2.9,3.4V27c2.7-4.5,4.1-7.1,4.1-7.9c0-0.1-0.1-0.2-0.2-0.2c-1.5,0-4.2,1.1-8.1,3.2c-1.3,0.5-2,1.3-2,2.4
		C103.5,24.6,103.1,25.1,102.6,26L102.6,26z M104,20.8V21h1.2v-0.6h-0.8C104.1,20.4,104,20.5,104,20.8L104,20.8z M103,21.6v0.6h0.2
		c0.3,0,0.4-0.1,0.4-0.4v-0.2H103z M113.6,25.6l-0.2,1c0.3,0,0.4-0.1,0.4-0.4v-0.6H113.6z M109.9,27.2v0.2c0,0.3-0.1,0.4-0.4,0.4
		v-0.2C109.5,27.4,109.7,27.2,109.9,27.2L109.9,27.2z M107.9,30.9v0.2h0.6v-0.6h-0.2C108,30.5,107.9,30.6,107.9,30.9L107.9,30.9z
		 M107,31.9v0.2h0.4c0-0.1,0.1-0.3,0.2-0.6h-0.2C107.2,31.5,107,31.7,107,31.9L107,31.9z M111.7,32.3v0.8c0.3,0,0.4-0.1,0.4-0.4
		v-0.4H111.7z M155.8,16.6h0.2c3.3,1.3,5,2.4,5,3.3c1.9,0.8,2.8,2.5,2.8,5.1c0,3.8-2.8,11.6-8.3,23.4l-0.4,0.2
		c-0.9,0-1.4-0.3-1.6-0.9c-0.4,0-0.9-0.6-1.8-1.8c-0.4,0-0.7-0.2-0.7-0.5v-0.9l-0.9,0.2l-0.2-1.2c0.7-2,2.6-6.6,5.6-13.8
		c0.7-2.1,1.3-4.3,1.9-6.6l-0.4-0.2c-4,3.3-7.2,6.7-9.7,10.4c-0.3,0.7-0.8,1-1.4,1c-0.2-0.1-0.4-0.1-0.5-0.1
		c-1.4,4.2-2.3,7.2-2.7,9.1l-0.8,0.7c-0.7-0.2-1.5-0.8-2.3-1.8c-0.3,0-1.2-0.9-2.6-2.6v-0.3c0-0.9,0.4-1.6,1.3-2.1
		c0-0.2,0.1-0.4,0.3-0.7v-0.4l-0.3,0.2c0-0.1-0.1-0.2-0.2-0.2c0.1-0.2,0.2-0.4,0.2-0.7h0.2l0.4,0.2c1-1.8,2.3-5.6,3.7-11.4h-0.4
		c-3.5,2.5-6.5,5.7-9.2,9.6c-3.4,6.2-5.1,10-5.1,11.6c-0.6,1-1,1.6-1.2,1.6c-1.3,0-3-1.3-5.1-3.8c0-0.2-0.1-0.4-0.4-0.7l3-6.3
		l-0.1-0.4c0.3-1.1,1.6-3.8,3.9-8c0.8-2.6,1.4-3.9,1.8-3.9c0,0.2,0.1,0.4,0.4,0.4c0.1-0.4,0.4-0.8,1-1.4c0.1,0.2,0.2,0.4,0.2,0.7
		c1.5-1.1,3.3-2.5,5.3-4.2l1.1,0.1c1.1-0.9,2.6-1.4,4.4-1.4c1.7,0.9,2.8,1.7,3.1,2.5c0.4,0,1.1,0.5,2,1.6l0.3-0.2h1.4
		c0.2-0.8,0.5-1.2,0.7-1.2c0,0.1,0.1,0.2,0.2,0.2l-0.2,0.4v0.2h0.2l0.5-0.4h0.2c0,0.3,0.1,0.5,0.3,0.5c0-0.2,0.1-0.3,0.2-0.3
		l-0.2-0.4v-0.2h0.4c0,0.2,0.1,0.3,0.2,0.3c0.5-0.2,1.5-1,2.8-2.4l2.6-0.7v-0.6h-0.3c-0.4,0-0.8,0.2-1.4,0.6l-0.2-0.4
		C155.5,17.1,155.8,16.8,155.8,16.6L155.8,16.6z M153.2,17.9h0.2V18c0,0.2-0.1,0.4-0.4,0.4l-0.2-0.4L153.2,17.9z M137.8,19.6v0.2
		h0.4c0.2-0.5,0.6-0.7,1.1-0.7v-0.2h-0.2L137.8,19.6z M152.3,21.9v0.2c1.5-1.4,2.5-2.1,3-2.1v-0.4h-0.2
		C154,20,153.1,20.8,152.3,21.9L152.3,21.9z M135.9,21v0.2h0.5v-0.4C136.2,21,136,21,135.9,21L135.9,21z M140.5,29.8h0.2V30
		c-0.1,0.2-0.2,0.4-0.2,0.5h-0.4v-0.4C140.2,29.9,140.3,29.8,140.5,29.8L140.5,29.8z"/>
	<path class="st1" d="M99.2,77.4v3.1h2.3V69.4h-8.9v2.4H99v0.2c0,1.9-0.6,3.3-1.7,4.4c-1.1,1.1-2.7,1.7-4.6,1.7
		c-2.1,0-3.7-0.7-4.9-2.1c-1.2-1.4-1.8-3.3-1.8-5.8c0-1.9,0-3.8,0-5.6c0-2.4,0.6-4.2,1.8-5.6c1.2-1.4,2.9-2.1,5-2.1
		c1.5,0,2.8,0.3,3.7,1c1,0.7,1.6,1.7,1.8,2.9h2.6c-0.3-2-1.2-3.6-2.6-4.7c-1.4-1.1-3.3-1.7-5.5-1.7c-2.9,0-5.3,0.9-7,2.8
		c-1.7,1.8-2.6,4.2-2.6,7.4c0,1.8,0,3.7,0,5.6c0,3.1,0.8,5.5,2.5,7.4c1.7,1.9,3.9,2.8,6.6,2.8c1.4,0,2.7-0.3,3.8-0.8
		C97.4,79.3,98.4,78.5,99.2,77.4L99.2,77.4z M104.6,80.6V66.3h2.4v2.5c0.4-1,0.9-1.7,1.6-2.2c0.7-0.5,1.5-0.7,2.5-0.7h0.4
		c0.1,0,0.2,0,0.2,0v2.6c0,0-0.1,0-0.2,0h-0.4c-1.3,0-2.3,0.4-3,1c-0.7,0.7-1.1,1.7-1.1,3.1v7.9H104.6z M115.5,73.3
		c0,1.7,0.4,3,1.2,3.9c0.8,0.9,1.9,1.4,3.4,1.4c1.4,0,2.6-0.4,3.3-1.4c0.8-0.9,1.2-2.2,1.2-3.9s-0.4-3-1.2-3.9
		c-0.8-0.9-1.9-1.3-3.3-1.3c-1.5,0-2.6,0.4-3.4,1.3C115.9,70.3,115.5,71.6,115.5,73.3L115.5,73.3z M113.1,73.3
		c0-2.4,0.6-4.2,1.8-5.5c1.2-1.3,2.9-1.9,5.1-1.9s3.9,0.6,5.1,1.9c1.2,1.3,1.8,3.1,1.8,5.5s-0.6,4.2-1.8,5.5c-1.2,1.3-2.9,2-5.1,2
		c-2.2,0-3.9-0.7-5.1-2C113.7,77.5,113.1,75.7,113.1,73.3L113.1,73.3z M132.2,66.3v8.6c0,1.4,0.2,2.3,0.7,2.8
		c0.4,0.6,1.2,0.8,2.3,0.8c1.4,0,2.5-0.4,3.2-1.2c0.7-0.8,1.1-2,1.1-3.5v-7.5h2.4v14.2h-2.3v-2.3c-0.5,0.8-1.2,1.5-2,1.9
		c-0.8,0.4-1.8,0.7-2.8,0.7c-1,0-1.9-0.2-2.6-0.5c-0.8-0.3-1.3-0.8-1.7-1.4c-0.2-0.3-0.4-0.8-0.5-1.2c-0.1-0.5-0.2-1.2-0.2-2.2v-0.7
		v-8.4H132.2z M147.9,73.4c0-1.7,0.4-3,1.1-4c0.7-0.9,1.8-1.4,3.1-1.4c1.3,0,2.4,0.4,3.2,1.3c0.8,0.9,1.2,2.1,1.2,3.7
		c0,1.7-0.4,3.1-1.1,4c-0.8,0.9-1.8,1.4-3.2,1.4c-1.4,0-2.5-0.4-3.2-1.3C148.3,76.4,147.9,75.1,147.9,73.4L147.9,73.4z M145.5,90.7
		h2.5V78.6c0.6,0.7,1.2,1.3,2,1.7c0.8,0.4,1.6,0.6,2.6,0.6c1.9,0,3.4-0.7,4.6-2c1.1-1.4,1.7-3.2,1.7-5.4c0-2.3-0.6-4.1-1.7-5.4
		c-1.1-1.3-2.7-2-4.6-2c-1,0-1.9,0.2-2.6,0.6c-0.8,0.4-1.4,1-2,1.9v-2.1h-2.5V90.7z"/>
	<path class="st1" d="M168.2,2.4c-1.5,0-2.8,0.5-3.9,1.6c-1.1,1.1-1.6,2.4-1.6,3.9c0,1.5,0.5,2.8,1.6,3.8c1.1,1.1,2.4,1.6,3.9,1.6
		c1.5,0,2.8-0.5,3.8-1.6c1.1-1.1,1.6-2.4,1.6-3.8c0-1.5-0.5-2.8-1.6-3.9C171,2.9,169.7,2.4,168.2,2.4L168.2,2.4z M168.2,1.3
		c1.2,0,2.3,0.3,3.3,0.9c1,0.6,1.8,1.4,2.4,2.4c0.6,1,0.9,2.1,0.9,3.3c0,1.2-0.3,2.3-0.9,3.3c-0.6,1-1.4,1.8-2.4,2.4
		c-1,0.6-2.1,0.9-3.3,0.9c-1.2,0-2.3-0.3-3.3-0.9c-1-0.6-1.8-1.4-2.4-2.4c-0.6-1-0.9-2.1-0.9-3.3c0-1.2,0.3-2.3,0.9-3.3
		c0.6-1,1.4-1.8,2.4-2.4C166,1.6,167,1.3,168.2,1.3L168.2,1.3z"/>
	<path class="st1" d="M166.5,7.5h1.9c0.4,0,0.7,0,0.9-0.1c0.2-0.1,0.4-0.2,0.5-0.4c0.1-0.2,0.2-0.4,0.2-0.6c0-0.3-0.1-0.6-0.3-0.8
		c-0.2-0.2-0.6-0.3-1.1-0.3h-2.1V7.5z M165.6,11.2V4.5h2.9c0.6,0,1.1,0.1,1.4,0.2c0.3,0.1,0.6,0.3,0.7,0.6c0.2,0.3,0.3,0.6,0.3,1
		c0,0.5-0.2,0.9-0.5,1.2c-0.3,0.3-0.8,0.5-1.4,0.6c0.2,0.1,0.4,0.2,0.5,0.3c0.3,0.2,0.5,0.5,0.7,0.9l1.2,1.8h-1.1l-0.9-1.4
		c-0.3-0.4-0.5-0.7-0.6-0.9c-0.2-0.2-0.3-0.4-0.4-0.4c-0.1-0.1-0.3-0.1-0.4-0.2c-0.1,0-0.3,0-0.5,0h-1v2.9H165.6z"/>
</g>
</svg>
