<svg width="312" height="121" viewBox="0 0 312 121" fill="none" xmlns="http://www.w3.org/2000/svg">
<g clip-path="url(#clip0_144_9)">
<path fill-rule="evenodd" clip-rule="evenodd" d="M1.42139 119.957V94.1608H9.52922L9.80309 96.4448C10.9658 95.6129 12.2732 94.9308 13.7201 94.4037C15.1721 93.8766 16.7327 93.613 18.4018 93.613C20.0709 93.613 21.5023 93.8766 22.4842 94.4037C23.466 94.9308 24.2256 95.6645 24.7682 96.6102C25.9671 95.7369 27.3158 95.0238 28.8247 94.4605C30.3285 93.8973 32.1009 93.6182 34.1317 93.6182C37.1444 93.6182 39.3561 94.3985 40.772 95.9591C42.1879 97.5197 42.8959 99.8967 42.8959 103.09V119.962H34.2403V104.124C34.2403 102.708 33.9405 101.685 33.3411 101.049C32.7417 100.413 31.7702 100.098 30.4318 100.098C29.5998 100.098 28.7834 100.269 27.9824 100.615C27.1866 100.961 26.5148 101.442 25.9671 102.057C26.0394 102.455 26.0859 102.837 26.1014 103.199C26.1169 103.561 26.1273 103.995 26.1273 104.506V119.962H17.9626V104.015C17.9626 102.708 17.7352 101.731 17.2805 101.075C16.8257 100.424 15.9628 100.093 14.6967 100.093C13.7872 100.093 12.9398 100.331 12.1388 100.801C11.343 101.271 10.6144 101.819 9.96329 102.434V119.957H1.42139Z" fill="#000004"/>
<path fill-rule="evenodd" clip-rule="evenodd" d="M55.4111 120.499C53.7782 120.499 52.2641 120.21 50.8689 119.626C49.4736 119.047 48.3574 118.148 47.5203 116.934C46.6883 115.72 46.2698 114.205 46.2698 112.392C46.2698 109.741 47.1689 107.669 48.962 106.16C50.7603 104.656 53.4526 103.901 57.044 103.901H64.2269V103.302C64.2269 101.995 63.7928 101.059 62.9195 100.501C62.0462 99.9379 60.4184 99.6589 58.0207 99.6589C55.0804 99.6589 52.1969 100.114 49.3651 101.018V95.3595C50.6363 94.8531 52.1866 94.4345 54.0159 94.109C55.8503 93.7834 57.7778 93.618 59.8138 93.618C63.8031 93.618 66.9347 94.4345 69.2032 96.0674C71.4717 97.7004 72.6034 100.294 72.6034 103.85V119.957H64.9297L64.4956 117.781C63.5499 118.655 62.3459 119.321 60.8783 119.797C59.4108 120.267 57.5866 120.505 55.4111 120.505V120.499ZM58.1861 115.11C59.5658 115.11 60.7595 114.872 61.7775 114.402C62.7955 113.932 63.6119 113.332 64.2269 112.603V108.955H58.0207C55.4421 108.955 54.1554 109.989 54.1554 112.056C54.1554 113.001 54.481 113.74 55.1372 114.288C55.7883 114.831 56.8063 115.105 58.1861 115.105V115.11Z" fill="#000004"/>
<path fill-rule="evenodd" clip-rule="evenodd" d="M77.8904 119.957V94.1606H86.2153L86.4892 96.5532C87.6157 95.8659 89.0109 95.2355 90.68 94.6774C92.3491 94.1141 94.0182 93.7627 95.6873 93.618V100.201C94.7417 100.31 93.703 100.481 92.5558 100.718C91.4138 100.956 90.3235 101.235 89.29 101.561C88.2564 101.886 87.378 102.232 86.6494 102.594V119.957H77.8853H77.8904Z" fill="#000004"/>
<path fill-rule="evenodd" clip-rule="evenodd" d="M109.619 120.5C106.426 120.5 104.08 119.683 102.571 118.05C101.067 116.417 100.312 114.169 100.312 111.301V100.796H96.8296V94.1555H100.312V88.7658L109.077 86.4249V94.1504H115.334L114.952 100.791H109.077V110.697C109.077 111.932 109.387 112.79 110.002 113.28C110.617 113.771 111.542 114.014 112.777 114.014C113.831 114.014 114.9 113.833 115.986 113.472V119.404C114.28 120.127 112.156 120.494 109.619 120.494V120.5Z" fill="#000004"/>
<path d="M125.291 113.534H118.269V119.957H125.291V113.534Z" fill="#E42E10"/>
<path fill-rule="evenodd" clip-rule="evenodd" d="M143.357 120.5C138.748 120.5 135.151 119.373 132.552 117.125C129.958 114.877 128.661 111.519 128.661 107.059C128.661 102.599 130.015 99.1476 132.717 96.9359C135.42 94.7242 139.022 93.6132 143.522 93.6132C145.409 93.6132 147.052 93.7475 148.447 94.0214C149.842 94.2953 151.196 94.7397 152.504 95.3546V101.561C150.473 100.579 148.096 100.093 145.372 100.093C142.835 100.093 140.902 100.6 139.574 101.618C138.252 102.636 137.59 104.449 137.59 107.059C137.59 109.488 138.205 111.26 139.44 112.366C140.675 113.472 142.634 114.025 145.316 114.025C147.997 114.025 150.375 113.482 152.555 112.392V118.867C151.248 119.446 149.842 119.864 148.339 120.117C146.835 120.371 145.171 120.5 143.357 120.5Z" fill="#000004"/>
<path fill-rule="evenodd" clip-rule="evenodd" d="M170.46 120.5C165.489 120.5 161.826 119.347 159.469 117.043C157.113 114.738 155.929 111.41 155.929 107.054C155.929 102.698 157.118 99.4163 159.495 97.0961C161.872 94.7758 165.526 93.6132 170.46 93.6132C175.395 93.6132 179.106 94.7758 181.483 97.0961C183.86 99.4163 185.048 102.739 185.048 107.054C185.048 111.369 183.87 114.738 181.509 117.043C179.152 119.347 175.468 120.5 170.46 120.5ZM170.46 113.642C172.491 113.642 173.943 113.136 174.817 112.118C175.69 111.1 176.124 109.415 176.124 107.059C176.124 104.703 175.69 103.013 174.817 102C173.943 100.982 172.496 100.476 170.46 100.476C168.424 100.476 167.034 100.982 166.161 102C165.293 103.018 164.854 104.703 164.854 107.059C164.854 109.415 165.288 111.105 166.161 112.118C167.034 113.136 168.466 113.642 170.46 113.642Z" fill="#000004"/>
<path fill-rule="evenodd" clip-rule="evenodd" d="M189.508 119.957V94.1609H197.616L197.89 96.445C199.053 95.613 200.355 94.9309 201.807 94.4038C203.259 93.8767 204.82 93.6132 206.489 93.6132C208.158 93.6132 209.589 93.8767 210.571 94.4038C211.548 94.9309 212.313 95.6647 212.855 96.6103C214.054 95.737 215.403 95.0239 216.912 94.4606C218.415 93.8974 220.188 93.6183 222.219 93.6183C225.231 93.6183 227.443 94.3986 228.859 95.9592C230.275 97.5198 230.983 99.8969 230.983 103.09V119.962H222.327V104.124C222.327 102.708 222.027 101.685 221.428 101.049C220.829 100.414 219.857 100.098 218.519 100.098C217.687 100.098 216.87 100.269 216.069 100.615C215.274 100.961 214.602 101.442 214.054 102.057C214.126 102.455 214.173 102.837 214.188 103.199C214.204 103.561 214.214 103.995 214.214 104.506V119.962H206.049V104.015C206.049 102.708 205.822 101.731 205.367 101.075C204.913 100.424 204.05 100.093 202.784 100.093C201.879 100.093 201.027 100.331 200.226 100.801C199.43 101.271 198.701 101.819 198.05 102.434V119.957H189.508Z" fill="#000004"/>
<path fill-rule="evenodd" clip-rule="evenodd" d="M163.242 81.8987V0.5L179.556 13.3723V37.2617L170.151 29.1694V81.6868V81.8987H163.242Z" fill="#E42E10"/>
<path fill-rule="evenodd" clip-rule="evenodd" d="M173.525 81.8992V37.5154L183.287 46.202V81.8992H173.525Z" fill="#1A1A18"/>
<path fill-rule="evenodd" clip-rule="evenodd" d="M0.000244141 80.7826V27.9603H17.053L17.6111 32.8643C19.9158 31.4535 22.7735 30.172 26.1944 29.0196C29.6101 27.8673 33.031 27.1438 36.4467 26.8441V40.3313C34.5141 40.5535 32.3799 40.9049 30.039 41.3907C27.6981 41.8712 25.4709 42.45 23.3522 43.1166C21.2336 43.7832 19.4353 44.4912 17.947 45.2353V80.7878H0.000244141V80.7826Z" fill="#E42E10"/>
<path fill-rule="evenodd" clip-rule="evenodd" d="M69.3176 81.8988C60.1039 81.8988 52.7143 79.6148 47.1386 75.0467C41.568 70.4786 38.7827 63.5851 38.7827 54.3715C38.7827 45.9743 41.0874 39.2875 45.6917 34.3112C50.2959 29.3349 57.2101 26.8441 66.4186 26.8441C74.8158 26.8441 81.3165 28.999 85.9208 33.3087C90.525 37.6184 92.8297 43.4112 92.8297 50.6922V60.1642H55.3911C56.2076 63.6575 58.1196 66.0914 61.1322 67.4659C64.1397 68.8405 68.2479 69.5278 73.4464 69.5278C76.3454 69.5278 79.296 69.2694 82.3087 68.7475C85.3162 68.2256 87.8276 67.559 89.8326 66.7425V78.4469C87.3057 79.6354 84.2982 80.5087 80.8049 81.0668C77.3117 81.6249 73.4877 81.904 69.3279 81.904L69.3176 81.8988ZM55.3859 49.8034H77.229V47.4625C77.229 44.8632 76.4487 42.8014 74.8881 41.277C73.3275 39.7526 70.6921 38.9929 66.9767 38.9929C62.667 38.9929 59.6595 39.8662 57.949 41.6129C56.2386 43.3595 55.3859 46.0879 55.3859 49.8034Z" fill="#E42E10"/>
<path fill-rule="evenodd" clip-rule="evenodd" d="M118.465 81.8986C115.122 81.8986 112.021 81.3044 109.159 80.1159C106.296 78.9273 104.012 77.0877 102.306 74.6021C100.596 72.1114 99.7434 69.0109 99.7434 65.2954C99.7434 59.8695 101.583 55.6167 105.262 52.5368C108.942 49.4518 114.455 47.9119 121.814 47.9119H136.526V46.6872C136.526 44.0104 135.632 42.0985 133.849 40.9461C132.066 39.7937 128.723 39.2201 123.819 39.2201C117.799 39.2201 111.892 40.1503 106.099 42.0054V30.4147C108.699 29.376 111.877 28.5182 115.628 27.8516C119.38 27.185 123.338 26.8491 127.498 26.8491C135.673 26.8491 142.081 28.5234 146.721 31.8668C151.367 35.2102 153.687 40.5224 153.687 47.8034V80.7928H137.973L137.079 76.3332C135.146 78.116 132.676 79.4906 129.668 80.4569C126.661 81.4232 122.925 81.9038 118.465 81.9038V81.8986ZM124.15 70.866C126.971 70.866 129.426 70.3854 131.503 69.4191C133.585 68.4528 135.255 67.2281 136.515 65.7398V58.2728H123.809C118.532 58.2728 115.897 60.3914 115.897 64.6236C115.897 66.5563 116.564 68.0807 117.902 69.1917C119.24 70.3079 121.318 70.8608 124.144 70.8608L124.15 70.866Z" fill="#E42E10"/>
<path fill-rule="evenodd" clip-rule="evenodd" d="M217.769 81.8984C211.232 81.8984 206.421 80.2241 203.336 76.8859C200.251 73.5425 198.712 68.9383 198.712 63.068V41.5608H191.58V27.9651H198.712V16.9272L216.653 12.137V27.9651H229.469L228.688 41.5608H216.653V61.8433C216.653 64.3702 217.284 66.1323 218.55 67.1348C219.816 68.1373 221.707 68.6386 224.234 68.6386C226.389 68.6386 228.58 68.2665 230.807 67.5224V79.6712C227.314 81.1594 222.968 81.8984 217.769 81.8984Z" fill="#E42E10"/>
<path fill-rule="evenodd" clip-rule="evenodd" d="M248.413 100.399C245.736 100.399 243.452 100.27 241.56 100.006C239.664 99.7477 237.788 99.2465 235.933 98.5023V86.0228C237.194 86.4672 238.367 86.7669 239.442 86.9168C240.517 87.0666 241.617 87.139 242.728 87.139C245.777 87.139 248.061 86.6016 249.58 85.5215C251.105 84.4467 252.645 82.5296 254.205 79.7804L230.466 27.9554H249.301L263.233 61.5029L276.942 27.9554H295.664L275.49 76.4371C273.485 81.2687 271.253 85.4802 268.804 89.0871C266.354 92.6889 263.491 95.4742 260.22 97.4482C256.949 99.417 253.012 100.404 248.407 100.404L248.413 100.399Z" fill="#E42E10"/>
<path d="M299.676 29.1527V22.9206H297.376V21.975H303.174V22.9206H300.89V29.1527H299.676Z" fill="#1A1A18"/>
<path d="M304.145 29.1529V21.9701H305.396L307.67 26.6209L309.933 21.9701H311.183V29.1529H309.979V23.9441L308.042 27.9127H307.308L305.354 23.9441V29.1529H304.15H304.145Z" fill="#1A1A18"/>
</g>
<defs>
<clipPath id="clip0_144_9">
<rect width="311.177" height="120" fill="white" transform="translate(0 0.5)"/>
</clipPath>
</defs>
</svg>
